<?xml version="1.0" encoding="utf-8"?>
<!-- Generator: Adobe Illustrator 22.0.1, SVG Export Plug-In . SVG Version: 6.00 Build 0)  -->
<svg version="1.1" id="Layer_1" xmlns="http://www.w3.org/2000/svg" xmlns:xlink="http://www.w3.org/1999/xlink" x="0px" y="0px"
	 viewBox="0 0 50.2 24.3" style="enable-background:new 0 0 50.2 24.3;" xml:space="preserve">
<style type="text/css">
	.st0{fill:url(#SVGID_1_);}
	.st1{fill:#103C6F;}
	.st2{fill:#FFFFFF;}
	.st3{fill:none;}
	.st4{opacity:0.85;fill:url(#SVGID_2_);enable-background:new    ;}
	.st5{opacity:0.85;fill:url(#SVGID_3_);enable-background:new    ;}
	.st6{enable-background:new    ;}
</style>
<linearGradient id="SVGID_1_" gradientUnits="userSpaceOnUse" x1="-1.7888" y1="-0.2597" x2="8.5964" y2="10.1255" gradientTransform="matrix(1 0 0 -1 0 24.9291)">
	<stop  offset="0.5027" style="stop-color:#FFFFFF;stop-opacity:0"/>
	<stop  offset="0.9344" style="stop-color:#FFFFFF;stop-opacity:0.8706"/>
	<stop  offset="0.9986" style="stop-color:#FFFFFF"/>
</linearGradient>
<path class="st0" d="M8.7,9.5c0,0,0.7,2.2,3.4,2.7L4.5,24.3l-5.8-5L8.7,9.5z"/>
<path class="st1" d="M10.6,11.7C10.1,12.2,9,11.9,9,11.9s-0.3-1.1,0.3-1.6s1-0.6,1-0.6S9.5,9.5,9,10.1c-1,1-0.6,2.7-0.6,2.7
	s1.6,0.4,2.7-0.6c0.6-0.6,0.4-1.4,0.4-1.4S11.1,11.2,10.6,11.7z"/>
<path class="st2" d="M6.3,12.2L4.4,9.5c-0.2,0-0.4,0-0.7,0H1.5v2.7H0.6V3.8h3.1c1.1,0,1.9,0.3,2.5,0.8s0.9,1.2,0.9,2.1
	c0,0.7-0.2,1.2-0.5,1.7s-0.8,0.8-1.4,1l2.1,2.9L6.3,12.2L6.3,12.2z M5.6,8.2C6,7.9,6.3,7.3,6.3,6.7C6.3,6,6,5.5,5.6,5.1
	S4.5,4.6,3.7,4.6H1.5v4.2h2.2C4.5,8.8,5.2,8.6,5.6,8.2z"/>
<path class="st2" d="M20.7,11.7c-0.7-0.4-1.2-0.9-1.6-1.5c-0.4-0.7-0.6-1.4-0.6-2.2s0.2-1.5,0.6-2.2s0.9-1.2,1.6-1.5
	c0.7-0.4,1.4-0.6,2.3-0.6c0.6,0,1.2,0.1,1.7,0.3s1,0.5,1.3,0.9l-0.6,0.6c-0.7-0.7-1.5-1-2.5-1c-0.7,0-1.3,0.2-1.8,0.5
	s-1,0.7-1.3,1.2S19.3,7.3,19.3,8c0,0.7,0.2,1.2,0.5,1.8c0.3,0.5,0.7,0.9,1.3,1.2s1.1,0.5,1.8,0.5c1,0,1.8-0.3,2.5-1l0.6,0.6
	c-0.4,0.4-0.8,0.7-1.3,0.9s-1.1,0.3-1.7,0.3C22.1,12.3,21.4,12.1,20.7,11.7z"/>
<path class="st2" d="M30.6,8.2L28.8,10v2.2h-0.9V3.8h0.9v5.1l4.9-5.1h1l-3.6,3.8l3.9,4.6h-1L30.6,8.2z"/>
<path class="st2" d="M42.4,11.4v0.8h-5.9V3.8h5.8v0.8h-4.9v3h4.3v0.8h-4.3v3.1h5V11.4z"/>
<path class="st2" d="M46.1,4.6h-3V3.8H50v0.8h-3v7.6h-0.9V4.6z"/>
<path class="st3" d="M12.9,9.3L13,9.2c1.1-0.6,2.3-1.4,3.2-2.3c-0.1-0.2-0.2-0.4-0.3-0.7c-0.3-0.5-0.7-0.9-1.3-1.2
	c-0.2-0.1-0.4-0.2-0.7-0.3c-0.8,0.8-1.6,1.8-2.3,3.2l-0.1,0.2L10,7.7L9.4,8.3v0.1L11,9.2l-0.1,0.2c-0.1,0.2-0.2,0.4-0.2,0.5l0.3,0.3
	c0.1-0.1,0.3-0.1,0.5-0.2l0.2-0.1l0.8,1.5c0.1,0,0.1,0,0.2,0l0.6-0.6L12.9,9.3z"/>
<path class="st3" d="M11.1,10.7l-0.2,0.1L10.2,10V9.9c0,0,0-0.2,0.2-0.5L9.5,9c0.1,0.3,0.2,0.5,0.3,0.8c0.3,0.5,0.7,0.9,1.3,1.2
	c0.2,0.1,0.5,0.2,0.7,0.3l-0.4-0.8C11.2,10.6,11.1,10.7,11.1,10.7z"/>
<path class="st3" d="M11.4,7.5c0.7-1.2,1.4-2.2,2.1-2.9c-0.2,0-0.4-0.1-0.6-0.1c-0.7,0-1.3,0.1-1.8,0.4s-1,0.7-1.3,1.2
	c-0.2,0.5-0.3,1-0.4,1.5l0.4-0.4L11.4,7.5z"/>
<path class="st3" d="M16.8,5.8C16.9,5.9,16.9,6,17,6.1c1-1.4,1.1-2.7,1.1-3.2c-0.5,0-1.9,0.1-3.2,1.2c0.1,0.1,0.3,0.1,0.4,0.2
	C15.8,4.6,16.4,5.2,16.8,5.8z"/>
<path class="st3" d="M13.8,11l-0.4,0.4c0.5-0.1,0.9-0.2,1.3-0.4c0.5-0.3,1-0.7,1.3-1.2s0.5-1.1,0.5-1.8c0-0.2,0-0.4,0-0.6
	c-0.9,0.8-2,1.5-2.9,2.1L13.8,11z"/>
<path class="st2" d="M9.3,8.4L9.3,8.4C9.4,8.4,9.4,8.3,9.3,8.4L9.3,8.4z"/>
<path class="st2" d="M11.1,11c-0.5-0.3-1-0.7-1.3-1.2C9.7,9.5,9.6,9.3,9.5,9l-1-0.5C8.6,9.1,8.7,9.7,9,10.2c0.4,0.6,0.9,1.2,1.6,1.5
	c0.5,0.3,1.1,0.5,1.7,0.5l-0.5-0.9C11.6,11.2,11.4,11.2,11.1,11z"/>
<path class="st2" d="M16.7,7.1c-0.1,0.1-0.2,0.2-0.3,0.3c0,0.2,0,0.4,0,0.6c0,0.7-0.2,1.3-0.5,1.8c-0.3,0.5-0.7,0.9-1.3,1.2
	c-0.4,0.2-0.9,0.3-1.3,0.4l-0.8,0.8c0.1,0,0.2,0,0.4,0c0.8,0,1.6-0.2,2.3-0.6c0.7-0.4,1.2-0.9,1.6-1.5s0.6-1.4,0.6-2.2
	c0-0.5-0.1-0.9-0.2-1.4C17,6.8,16.9,7,16.7,7.1z"/>
<linearGradient id="SVGID_2_" gradientUnits="userSpaceOnUse" x1="15.4597" y1="13.1337" x2="14.3484" y2="17.5912" gradientTransform="matrix(1 0 0 -1 0 24.9291)">
	<stop  offset="0.473" style="stop-color:#FFFFFF"/>
	<stop  offset="0.5527" style="stop-color:#C6CFDB"/>
	<stop  offset="0.636" style="stop-color:#93A3BB"/>
	<stop  offset="0.718" style="stop-color:#687F9F"/>
	<stop  offset="0.7969" style="stop-color:#46638A"/>
	<stop  offset="0.8719" style="stop-color:#2E4E7B"/>
	<stop  offset="0.9414" style="stop-color:#204272"/>
	<stop  offset="1" style="stop-color:#1B3E6F"/>
</linearGradient>
<path class="st4" d="M16.7,7.1c-0.1,0.1-0.2,0.2-0.3,0.3c0,0.2,0,0.4,0,0.6c0,0.7-0.2,1.3-0.5,1.8c-0.3,0.5-0.7,0.9-1.3,1.2
	c-0.4,0.2-0.9,0.3-1.3,0.4l-0.8,0.8c0.1,0,0.2,0,0.4,0c0.8,0,1.6-0.2,2.3-0.6c0.7-0.4,1.2-0.9,1.6-1.5s0.6-1.4,0.6-2.2
	c0-0.5-0.1-0.9-0.2-1.4C17,6.8,16.9,7,16.7,7.1z"/>
<path class="st2" d="M12.5,11.6l0.1-0.1c-0.1,0-0.1,0-0.2,0L12.5,11.6z"/>
<path class="st2" d="M9.8,6.2c0.3-0.5,0.7-0.9,1.3-1.2c0.5-0.3,1.1-0.4,1.8-0.4c0.2,0,0.4,0,0.6,0.1c0.1-0.1,0.2-0.2,0.3-0.3
	C14,4.1,14.1,4,14.2,3.9c-0.4-0.1-0.8-0.2-1.3-0.2c-0.8,0-1.6,0.2-2.3,0.6C10,4.7,9.5,5.2,9.1,5.8C8.7,6.5,8.5,7.2,8.5,8
	c0,0.2,0,0.3,0,0.5l0.9-0.9C9.5,7.1,9.6,6.6,9.8,6.2z"/>
<linearGradient id="SVGID_3_" gradientUnits="userSpaceOnUse" x1="9.663" y1="19.9548" x2="12.1365" y2="18.1577" gradientTransform="matrix(1 0 0 -1 0 24.9291)">
	<stop  offset="0.427" style="stop-color:#FFFFFF"/>
	<stop  offset="0.4545" style="stop-color:#EEF1F5"/>
	<stop  offset="0.5676" style="stop-color:#AFBBCC"/>
	<stop  offset="0.6757" style="stop-color:#7A8FAB"/>
	<stop  offset="0.7759" style="stop-color:#516C91"/>
	<stop  offset="0.8663" style="stop-color:#33537E"/>
	<stop  offset="0.944" style="stop-color:#214373"/>
	<stop  offset="1" style="stop-color:#1B3E6F"/>
</linearGradient>
<path class="st5" d="M9.8,6.2c0.3-0.5,0.7-0.9,1.3-1.2c0.5-0.3,1.1-0.4,1.8-0.4c0.2,0,0.4,0,0.6,0.1c0.1-0.1,0.2-0.2,0.3-0.3
	C14,4.1,14.1,4,14.2,3.9c-0.4-0.1-0.8-0.2-1.3-0.2c-0.8,0-1.6,0.2-2.3,0.6C10,4.7,9.5,5.2,9.1,5.8C8.7,6.5,8.5,7.2,8.5,8
	c0,0.2,0,0.3,0,0.5l0.9-0.9C9.5,7.1,9.6,6.6,9.8,6.2z"/>
<path class="st2" d="M9.4,8.4L9.4,8.4L9.4,8.4c0-0.2,0-0.3,0-0.4c0-0.1,0-0.3,0-0.4L8.5,8.5c0,0,0,0,0,0.1l1,0.5
	C9.5,8.8,9.4,8.6,9.4,8.4z"/>
<path class="st2" d="M12.9,11.5c-0.1,0-0.2,0-0.3,0l-0.1,0.1l-0.1-0.1c-0.2,0-0.4,0-0.6-0.1l0.5,0.9c0.1,0,0.2,0,0.2,0l0.8-0.8
	C13.2,11.4,13.1,11.5,12.9,11.5z"/>
<path class="st1" d="M18.2,2.7c0,0-2.2-0.3-4.2,1.8c-1,1-1.8,2.2-2.5,3.4L9.9,7.4l-1,1l1.8,0.9c-0.2,0.4-0.3,0.6-0.3,0.6l0.5,0.5
	c0,0,0.3-0.1,0.6-0.3l0.9,1.8l1-1l-0.3-1.6c1.1-0.6,2.4-1.5,3.4-2.4C18.5,4.9,18.2,2.7,18.2,2.7z"/>
<g class="st6">
	<path class="st2" d="M3.9,0.8C4,1,4.1,1.2,4.1,1.5v1.2H3.8V1.5c0-0.2-0.1-0.4-0.2-0.5C3.6,0.9,3.4,0.8,3.2,0.8C3,0.8,2.8,0.9,2.7,1
		S2.5,1.4,2.5,1.6v1.1H2.2V1.5c0-0.2-0.1-0.4-0.2-0.5C2,0.9,1.8,0.8,1.6,0.8C1.4,0.8,1.2,0.9,1.1,1C1,1.2,0.9,1.4,0.9,1.6v1.1H0.6
		V0.6h0.3V1C1,0.8,1.1,0.7,1.2,0.7c0.1-0.1,0.3-0.1,0.5-0.1c0.2,0,0.3,0,0.5,0.1C2.3,0.8,2.4,0.9,2.4,1c0.1-0.1,0.2-0.2,0.3-0.3
		c0.1-0.1,0.3-0.1,0.5-0.1C3.5,0.6,3.7,0.7,3.9,0.8z"/>
	<path class="st2" d="M5.5,0.7c0.1-0.1,0.3-0.1,0.5-0.1v0.3l-0.1,0c-0.2,0-0.4,0.1-0.5,0.2C5.2,1.2,5.2,1.4,5.2,1.6v1.1H4.9V0.6h0.3
		V1C5.2,0.9,5.3,0.8,5.5,0.7z"/>
	<path class="st2" d="M6.3,2.7c0,0-0.1-0.1-0.1-0.2s0-0.1,0.1-0.2c0,0,0.1-0.1,0.1-0.1s0.1,0,0.2,0.1c0,0,0.1,0.1,0.1,0.2
		s0,0.1-0.1,0.2c0,0-0.1,0.1-0.2,0.1S6.4,2.7,6.3,2.7z"/>
</g>
</svg>
