<?xml version="1.0" standalone="no"?>
<!DOCTYPE svg PUBLIC "-//W3C//DTD SVG 20010904//EN"
 "http://www.w3.org/TR/2001/REC-SVG-20010904/DTD/svg10.dtd">
<svg version="1.0" xmlns="http://www.w3.org/2000/svg"
 width="700.000000pt" height="700.000000pt" viewBox="0 0 700.000000 700.000000"
 preserveAspectRatio="xMidYMid meet">
<metadata>
Created by potrace 1.11, written by Peter Selinger 2001-2013
</metadata>
<g transform="translate(0.000000,700.000000) scale(0.100000,-0.100000)"
fill="#000000" stroke="none">
<path d="M4965 5539 c-44 -3 -97 -13 -117 -22 -216 -91 -241 -384 -43 -510 74
-47 95 -49 663 -49 l535 0 -1033 -1033 -1033 -1033 -641 640 c-716 716 -688
693 -821 692 -131 -1 -62 61 -1296 -1173 -907 -907 -1122 -1127 -1145 -1171
-23 -46 -28 -67 -27 -130 0 -121 55 -210 163 -263 65 -31 176 -31 245 2 40 19
245 218 1057 1030 l1008 1006 652 -651 c631 -628 655 -651 710 -668 70 -23
162 -17 227 15 33 15 354 331 1194 1170 632 632 1150 1149 1151 1149 1 0 2
-233 2 -517 0 -285 3 -539 7 -565 34 -263 387 -335 532 -108 46 72 46 91 43
1060 -3 905 -3 916 -24 960 -30 65 -95 125 -162 150 -56 21 -67 22 -912 23
-470 1 -891 -1 -935 -4z"/>
</g>
</svg>
