<?xml version="1.0" encoding="utf-8"?>
<!-- Generator: Adobe Illustrator 22.0.1, SVG Export Plug-In . SVG Version: 6.00 Build 0)  -->
<svg version="1.1" id="Layer_1" xmlns="http://www.w3.org/2000/svg" xmlns:xlink="http://www.w3.org/1999/xlink" x="0px" y="0px"
	 viewBox="0 0 957.6 238.9" style="enable-background:new 0 0 957.6 238.9;" xml:space="preserve">
<style type="text/css">
	.st0{opacity:0.3;}
	.st1{fill:#FFFFFF;}
</style>
<g class="st0">
	<path class="st1" d="M955.1,239c3.1-84-30.5-180.3-83.6-216.5C818.3-13.7,750.1,0,705.4,55.6c-16.6,20.7-32.2,48.1-54.2,51.4
		c-30.7,4.6-54.9-40.8-85.7-43.7c-41.1-3.9-68.7,66.4-109.5,75.4c-30.2,6.7-59-22.1-89.5-21.4c-22.3,0.5-43.6,16.9-65.9,15.6
		c-42.1-2.4-69.3-63.4-107.8-87.3C154.8,22,107.8,38.9,76.4,78.5C45.1,118,28.1,176.7,22.5,235.5L955.1,239z"/>
</g>
</svg>
