<?xml version="1.0" encoding="utf-8"?>
<!-- Generator: Adobe Illustrator 22.0.1, SVG Export Plug-In . SVG Version: 6.00 Build 0)  -->
<svg version="1.1" id="Layer_1" xmlns="http://www.w3.org/2000/svg" xmlns:xlink="http://www.w3.org/1999/xlink" x="0px" y="0px"
	 viewBox="0 0 957.6 238.9" style="enable-background:new 0 0 957.6 238.9;" xml:space="preserve">
<style type="text/css">
	.st0{fill:url(#SVGID_1_);}
</style>
<g>
	<linearGradient id="SVGID_1_" gradientUnits="userSpaceOnUse" x1="492.1669" y1="14.3367" x2="481.2147" y2="205.9995">
		<stop  offset="0" style="stop-color:#FFFFFF;stop-opacity:0"/>
		<stop  offset="0.9986" style="stop-color:#FFFFFF"/>
	</linearGradient>
	<path class="st0" d="M2.7,235.3C0.6,173.5,36.2,102.9,91,76.8c54.8-26.1,124.5-15.5,169.5,25.9c16.8,15.4,32.3,35.7,54.7,38.3
		c31.4,3.7,56.7-29.5,88.2-31.3c42.1-2.5,69.5,49.5,111,56.5c30.8,5.2,60.6-15.7,91.8-14.9c22.8,0.6,44.4,12.8,67.3,12.1
		c43-1.4,71.8-46,111.4-63.2c39.3-17.1,87.2-4.2,118.7,25.2c31.5,29.4,48.2,72.7,53.1,116.1L2.7,235.3z"/>
</g>
</svg>
